<svg width="237" height="83" viewBox="0 0 237 83" fill="none" xmlns="http://www.w3.org/2000/svg">
<g filter="url(#filter0_d_2996_3351)">
<path d="M32.4806 28.4858H35.6326V31.6377H32.4806V28.4858ZM32.4806 31.6377H35.6326V34.7897H32.4806V31.6377ZM32.4806 34.7897H35.6326V37.9417H32.4806V34.7897ZM32.4806 37.9417H35.6326V41.0936H32.4806V37.9417ZM32.4806 41.0936H35.6326V44.2456H32.4806V41.0936ZM32.4806 44.2456H35.6326V47.3976H32.4806V44.2456ZM35.6326 44.2456H38.7845V47.3976H35.6326V44.2456ZM35.6326 47.3976H38.7845V50.5495H35.6326V47.3976ZM38.7845 47.3976H41.9365V50.5495H38.7845V47.3976ZM38.7845 50.5495H41.9365V53.7015H38.7845V50.5495ZM41.9365 47.3976H45.0885V50.5495H41.9365V47.3976ZM45.0885 44.2456H48.2404V47.3976H45.0885V44.2456ZM48.2404 34.7897H51.3924V37.9417H48.2404V34.7897ZM45.0885 28.4858H48.2404V31.6377H45.0885V28.4858ZM48.2404 28.4858H51.3924V31.6377H48.2404V28.4858ZM48.2404 31.6377H51.3924V34.7897H48.2404V31.6377ZM48.2404 37.9417H51.3924V41.0936H48.2404V37.9417ZM48.2404 41.0936H51.3924V44.2456H48.2404V41.0936ZM45.0885 41.0936H48.2404V44.2456H45.0885V41.0936ZM45.0885 37.9417H48.2404V41.0936H45.0885V37.9417ZM45.0885 34.7897H48.2404V37.9417H45.0885V34.7897ZM45.0885 31.6377H48.2404V34.7897H45.0885V31.6377ZM48.2404 44.2456H51.3924V47.3976H48.2404V44.2456ZM54.5444 47.3976H57.6963V50.5495H54.5444V47.3976ZM54.5444 50.5495H57.6963V53.7015H54.5444V50.5495ZM57.6963 47.3976H60.8483V50.5495H57.6963V47.3976ZM57.6963 44.2456H60.8483V47.3976H57.6963V44.2456ZM60.8483 44.2456H64.0002V47.3976H60.8483V44.2456ZM60.8483 41.0936H64.0002V44.2456H60.8483V41.0936ZM60.8483 37.9417H64.0002V41.0936H60.8483V37.9417ZM60.8483 34.7897H64.0002V37.9417H60.8483V34.7897ZM60.8483 31.6377H64.0002V34.7897H60.8483V31.6377ZM60.8483 28.4858H64.0002V31.6377H60.8483V28.4858ZM35.6326 31.6377H38.7845V34.7897H35.6326V31.6377ZM35.6326 34.7897H38.7845V37.9417H35.6326V34.7897ZM35.6326 37.9417H38.7845V41.0936H35.6326V37.9417ZM35.6326 41.0936H38.7845V44.2456H35.6326V41.0936ZM35.6326 28.4858H38.7845V31.6377H35.6326V28.4858ZM57.6963 28.4858H60.8483V31.6377H57.6963V28.4858ZM57.6963 31.6377H60.8483V34.7897H57.6963V31.6377ZM57.6963 34.7897H60.8483V37.9417H57.6963V34.7897ZM57.6963 37.9417H60.8483V41.0936H57.6963V37.9417ZM57.6963 41.0936H60.8483V44.2456H57.6963V41.0936ZM41.9365 50.5495H45.0885V53.7015H41.9365V50.5495ZM45.0885 47.3976H48.2404V50.5495H45.0885V47.3976ZM48.2404 47.3976H51.3924V50.5495H48.2404V47.3976ZM51.3924 47.3976H54.5444V50.5495H51.3924V47.3976ZM51.3924 50.5495H54.5444V53.7015H51.3924V50.5495ZM38.7845 44.2456H41.9365V47.3976H38.7845V44.2456ZM54.5444 44.2456H57.6963V47.3976H54.5444V44.2456ZM73.4315 28.4858H76.5835V31.6377H73.4315V28.4858ZM70.2795 28.4858H73.4315V31.6377H70.2795V28.4858ZM70.2795 31.6377H73.4315V34.7897H70.2795V31.6377ZM73.4315 31.6377H76.5835V34.7897H73.4315V31.6377ZM76.5835 28.4858H79.7354V31.6377H76.5835V28.4858ZM79.7354 28.4858H82.8874V31.6377H79.7354V28.4858ZM82.8874 28.4858H86.0394V31.6377H82.8874V28.4858ZM82.8874 31.6377H86.0394V34.7897H82.8874V31.6377ZM79.7354 31.6377H82.8874V34.7897H79.7354V31.6377ZM82.8874 37.9417H86.0394V41.0936H82.8874V37.9417ZM86.0394 31.6377H89.1913V34.7897H86.0394V31.6377ZM86.0394 34.7897H89.1913V37.9417H86.0394V34.7897ZM86.0394 37.9417H89.1913V41.0936H86.0394V37.9417ZM86.0394 41.0936H89.1913V44.2456H86.0394V41.0936ZM86.0394 44.2456H89.1913V47.3976H86.0394V44.2456ZM86.0394 47.3976H89.1913V50.5495H86.0394V47.3976ZM82.8874 47.3976H86.0394V50.5495H82.8874V47.3976ZM82.8874 44.2456H86.0394V47.3976H82.8874V44.2456ZM82.8874 41.0936H86.0394V44.2456H82.8874V41.0936ZM82.8874 34.7897H86.0394V37.9417H82.8874V34.7897ZM79.7354 47.3976H82.8874V50.5495H79.7354V47.3976ZM82.8874 50.5495H86.0394V53.7015H82.8874V50.5495ZM79.7354 50.5495H82.8874V53.7015H79.7354V50.5495ZM76.5835 50.5495H79.7354V53.7015H76.5835V50.5495ZM73.4315 50.5495H76.5835V53.7015H73.4315V50.5495ZM70.2795 50.5495H73.4315V53.7015H70.2795V50.5495ZM70.2795 47.3976H73.4315V50.5495H70.2795V47.3976ZM73.4315 47.3976H76.5835V50.5495H73.4315V47.3976ZM70.2795 44.2456H73.4315V47.3976H70.2795V44.2456ZM67.1276 47.3976H70.2795V50.5495H67.1276V47.3976ZM67.1276 44.2456H70.2795V47.3976H67.1276V44.2456ZM67.1276 41.0936H70.2795V44.2456H67.1276V41.0936ZM67.1276 37.9417H70.2795V41.0936H67.1276V37.9417ZM67.1276 34.7897H70.2795V37.9417H67.1276V34.7897ZM67.1276 31.6377H70.2795V34.7897H67.1276V31.6377ZM70.2795 34.7897H73.4315V37.9417H70.2795V34.7897ZM70.2795 37.9417H73.4315V41.0936H70.2795V37.9417ZM70.2795 41.0936H73.4315V44.2456H70.2795V41.0936ZM76.5835 47.3976H79.7354V50.5495H76.5835V47.3976ZM76.5835 31.6377H79.7354V34.7897H76.5835V31.6377ZM98.6554 28.4858H101.807V31.6377H98.6554V28.4858ZM95.5034 28.4858H98.6554V31.6377H95.5034V28.4858ZM95.5034 31.6377H98.6554V34.7897H95.5034V31.6377ZM98.6554 31.6377H101.807V34.7897H98.6554V31.6377ZM101.807 28.4858H104.959V31.6377H101.807V28.4858ZM104.959 28.4858H108.111V31.6377H104.959V28.4858ZM108.111 28.4858H111.263V31.6377H108.111V28.4858ZM108.111 31.6377H111.263V34.7897H108.111V31.6377ZM104.959 31.6377H108.111V34.7897H104.959V31.6377ZM108.111 37.9417H111.263V41.0936H108.111V37.9417ZM111.263 31.6377H114.415V34.7897H111.263V31.6377ZM111.263 34.7897H114.415V37.9417H111.263V34.7897ZM111.263 37.9417H114.415V41.0936H111.263V37.9417ZM111.263 41.0936H114.415V44.2456H111.263V41.0936ZM111.263 44.2456H114.415V47.3976H111.263V44.2456ZM111.263 47.3976H114.415V50.5495H111.263V47.3976ZM108.111 47.3976H111.263V50.5495H108.111V47.3976ZM108.111 44.2456H111.263V47.3976H108.111V44.2456ZM108.111 41.0936H111.263V44.2456H108.111V41.0936ZM108.111 34.7897H111.263V37.9417H108.111V34.7897ZM104.959 47.3976H108.111V50.5495H104.959V47.3976ZM108.111 50.5495H111.263V53.7015H108.111V50.5495ZM104.959 50.5495H108.111V53.7015H104.959V50.5495ZM101.807 50.5495H104.959V53.7015H101.807V50.5495ZM98.6554 50.5495H101.807V53.7015H98.6554V50.5495ZM95.5034 50.5495H98.6554V53.7015H95.5034V50.5495ZM95.5034 47.3976H98.6554V50.5495H95.5034V47.3976ZM98.6554 47.3976H101.807V50.5495H98.6554V47.3976ZM95.5034 44.2456H98.6554V47.3976H95.5034V44.2456ZM92.3515 47.3976H95.5034V50.5495H92.3515V47.3976ZM92.3515 44.2456H95.5034V47.3976H92.3515V44.2456ZM92.3515 41.0936H95.5034V44.2456H92.3515V41.0936ZM92.3515 37.9417H95.5034V41.0936H92.3515V37.9417ZM92.3515 34.7897H95.5034V37.9417H92.3515V34.7897ZM92.3515 31.6377H95.5034V34.7897H92.3515V31.6377ZM95.5034 34.7897H98.6554V37.9417H95.5034V34.7897ZM95.5034 37.9417H98.6554V41.0936H95.5034V37.9417ZM95.5034 41.0936H98.6554V44.2456H95.5034V41.0936ZM101.807 47.3976H104.959V50.5495H101.807V47.3976ZM101.807 31.6377H104.959V34.7897H101.807V31.6377ZM117.575 31.6377H120.727V34.7897H117.575V31.6377ZM120.727 31.6377H123.879V34.7897H120.727V31.6377ZM123.879 31.6377H127.031V34.7897H123.879V31.6377ZM127.031 31.6377H130.183V34.7897H127.031V31.6377ZM130.183 31.6377H133.335V34.7897H130.183V31.6377ZM133.335 31.6377H136.487V34.7897H133.335V31.6377ZM136.487 31.6377H139.639V34.7897H136.487V31.6377ZM136.487 28.4858H139.639V31.6377H136.487V28.4858ZM133.335 28.4858H136.487V31.6377H133.335V28.4858ZM130.183 28.4858H133.335V31.6377H130.183V28.4858ZM127.031 28.4858H130.183V31.6377H127.031V28.4858ZM123.879 28.4858H127.031V31.6377H123.879V28.4858ZM120.727 28.4858H123.879V31.6377H120.727V28.4858ZM117.575 28.4858H120.727V31.6377H117.575V28.4858ZM136.487 34.7897H139.639V37.9417H136.487V34.7897ZM133.335 34.7897H136.487V37.9417H133.335V34.7897ZM130.183 34.7897H133.335V37.9417H130.183V34.7897ZM130.183 37.9417H133.335V41.0936H130.183V37.9417ZM133.335 37.9417H136.487V41.0936H133.335V37.9417ZM127.031 37.9417H130.183V41.0936H127.031V37.9417ZM130.183 41.0936H133.335V44.2456H130.183V41.0936ZM127.031 41.0936H130.183V44.2456H127.031V41.0936ZM123.879 41.0936H127.031V44.2456H123.879V41.0936ZM123.879 44.2456H127.031V47.3976H123.879V44.2456ZM120.727 44.2456H123.879V47.3976H120.727V44.2456ZM127.031 44.2456H130.183V47.3976H127.031V44.2456ZM117.575 47.3976H120.727V50.5495H117.575V47.3976ZM120.727 47.3976H123.879V50.5495H120.727V47.3976ZM123.879 47.3976H127.031V50.5495H123.879V47.3976ZM127.031 47.3976H130.183V50.5495H127.031V47.3976ZM130.183 47.3976H133.335V50.5495H130.183V47.3976ZM133.335 47.3976H136.487V50.5495H133.335V47.3976ZM133.335 50.5495H136.487V53.7015H133.335V50.5495ZM136.487 50.5495H139.639V53.7015H136.487V50.5495ZM136.487 47.3976H139.639V50.5495H136.487V47.3976ZM130.183 50.5495H133.335V53.7015H130.183V50.5495ZM127.031 50.5495H130.183V53.7015H127.031V50.5495ZM123.879 50.5495H127.031V53.7015H123.879V50.5495ZM120.727 50.5495H123.879V53.7015H120.727V50.5495ZM117.575 50.5495H120.727V53.7015H117.575V50.5495ZM142.799 22.1819H149.103V28.4858H142.799V22.1819ZM142.799 31.6377H149.103V53.7015H142.799V31.6377ZM158.584 28.4858H161.736V31.6377H158.584V28.4858ZM155.432 28.4858H158.584V31.6377H155.432V28.4858ZM155.432 31.6377H158.584V34.7897H155.432V31.6377ZM158.584 31.6377H161.736V34.7897H158.584V31.6377ZM161.736 28.4858H164.888V31.6377H161.736V28.4858ZM164.888 28.4858H168.04V31.6377H164.888V28.4858ZM168.04 28.4858H171.192V31.6377H168.04V28.4858ZM168.04 31.6377H171.192V34.7897H168.04V31.6377ZM164.888 31.6377H168.04V34.7897H164.888V31.6377ZM171.192 31.6377H174.344V34.7897H171.192V31.6377ZM171.192 34.7897H174.344V37.9417H171.192V34.7897ZM171.192 47.3976H174.344V50.5495H171.192V47.3976ZM168.04 47.3976H171.192V50.5495H168.04V47.3976ZM168.04 34.7897H171.192V37.9417H168.04V34.7897ZM164.888 47.3976H168.04V50.5495H164.888V47.3976ZM168.04 50.5495H171.192V53.7015H168.04V50.5495ZM164.888 50.5495H168.04V53.7015H164.888V50.5495ZM161.736 50.5495H164.888V53.7015H161.736V50.5495ZM158.584 50.5495H161.736V53.7015H158.584V50.5495ZM155.432 50.5495H158.584V53.7015H155.432V50.5495ZM155.432 47.3976H158.584V50.5495H155.432V47.3976ZM158.584 47.3976H161.736V50.5495H158.584V47.3976ZM155.432 44.2456H158.584V47.3976H155.432V44.2456ZM152.28 47.3976H155.432V50.5495H152.28V47.3976ZM152.28 44.2456H155.432V47.3976H152.28V44.2456ZM152.28 41.0936H155.432V44.2456H152.28V41.0936ZM152.28 37.9417H155.432V41.0936H152.28V37.9417ZM152.28 34.7897H155.432V37.9417H152.28V34.7897ZM152.28 31.6377H155.432V34.7897H152.28V31.6377ZM155.432 34.7897H158.584V37.9417H155.432V34.7897ZM155.432 37.9417H158.584V41.0936H155.432V37.9417ZM155.432 41.0936H158.584V44.2456H155.432V41.0936ZM161.736 47.3976H164.888V50.5495H161.736V47.3976ZM161.736 31.6377H164.888V34.7897H161.736V31.6377ZM168.04 37.9417H171.192V41.0936H168.04V37.9417ZM171.192 37.9417H174.344V41.0936H171.192V37.9417ZM158.584 41.0936H161.736V44.2456H158.584V41.0936ZM161.736 41.0936H164.888V44.2456H161.736V41.0936ZM164.888 41.0936H168.04V44.2456H164.888V41.0936ZM168.04 41.0936H171.192V44.2456H168.04V41.0936ZM171.192 41.0936H174.344V44.2456H171.192V41.0936ZM164.888 37.9417H168.04V41.0936H164.888V37.9417ZM161.736 37.9417H164.888V41.0936H161.736V37.9417ZM158.584 37.9417H161.736V41.0936H158.584V37.9417ZM183.808 28.4858H186.96V31.6377H183.808V28.4858ZM180.656 28.4858H183.808V31.6377H180.656V28.4858ZM180.656 31.6377H183.808V34.7897H180.656V31.6377ZM183.808 31.6377H186.96V34.7897H183.808V31.6377ZM186.96 28.4858H190.112V31.6377H186.96V28.4858ZM190.112 28.4858H193.264V31.6377H190.112V28.4858ZM193.264 28.4858H196.415V31.6377H193.264V28.4858ZM193.264 31.6377H196.415V34.7897H193.264V31.6377ZM190.112 31.6377H193.264V34.7897H190.112V31.6377ZM196.415 31.6377H199.567V34.7897H196.415V31.6377ZM196.415 34.7897H199.567V37.9417H196.415V34.7897ZM196.415 47.3976H199.567V50.5495H196.415V47.3976ZM193.264 47.3976H196.415V50.5495H193.264V47.3976ZM193.264 34.7897H196.415V37.9417H193.264V34.7897ZM190.112 47.3976H193.264V50.5495H190.112V47.3976ZM193.264 50.5495H196.415V53.7015H193.264V50.5495ZM190.112 50.5495H193.264V53.7015H190.112V50.5495ZM186.96 50.5495H190.112V53.7015H186.96V50.5495ZM183.808 50.5495H186.96V53.7015H183.808V50.5495ZM180.656 50.5495H183.808V53.7015H180.656V50.5495ZM180.656 47.3976H183.808V50.5495H180.656V47.3976ZM183.808 47.3976H186.96V50.5495H183.808V47.3976ZM180.656 44.2456H183.808V47.3976H180.656V44.2456ZM177.504 47.3976H180.656V50.5495H177.504V47.3976ZM177.504 44.2456H180.656V47.3976H177.504V44.2456ZM177.504 41.0936H180.656V44.2456H177.504V41.0936ZM177.504 37.9417H180.656V41.0936H177.504V37.9417ZM177.504 34.7897H180.656V37.9417H177.504V34.7897ZM177.504 31.6377H180.656V34.7897H177.504V31.6377ZM180.656 34.7897H183.808V37.9417H180.656V34.7897ZM180.656 37.9417H183.808V41.0936H180.656V37.9417ZM180.656 41.0936H183.808V44.2456H180.656V41.0936ZM186.96 47.3976H190.112V50.5495H186.96V47.3976ZM186.96 31.6377H190.112V34.7897H186.96V31.6377ZM193.264 37.9417H196.415V41.0936H193.264V37.9417ZM196.415 37.9417H199.567V41.0936H196.415V37.9417ZM183.808 41.0936H186.96V44.2456H183.808V41.0936ZM186.96 41.0936H190.112V44.2456H186.96V41.0936ZM190.112 41.0936H193.264V44.2456H190.112V41.0936ZM193.264 41.0936H196.415V44.2456H193.264V41.0936ZM196.415 41.0936H199.567V44.2456H196.415V41.0936ZM190.112 37.9417H193.264V41.0936H190.112V37.9417ZM186.96 37.9417H190.112V41.0936H186.96V37.9417ZM183.808 37.9417H186.96V41.0936H183.808V37.9417Z" fill="white"/>
</g>
<defs>
<filter id="filter0_d_2996_3351" x="32.4805" y="22.1819" width="175.087" height="39.5196" filterUnits="userSpaceOnUse" color-interpolation-filters="sRGB">
<feFlood flood-opacity="0" result="BackgroundImageFix"/>
<feColorMatrix in="SourceAlpha" type="matrix" values="0 0 0 0 0 0 0 0 0 0 0 0 0 0 0 0 0 0 127 0" result="hardAlpha"/>
<feOffset dx="4" dy="4"/>
<feGaussianBlur stdDeviation="2"/>
<feComposite in2="hardAlpha" operator="out"/>
<feColorMatrix type="matrix" values="0 0 0 0 0 0 0 0 0 0 0 0 0 0 0 0 0 0 0.5 0"/>
<feBlend mode="normal" in2="BackgroundImageFix" result="effect1_dropShadow_2996_3351"/>
<feBlend mode="normal" in="SourceGraphic" in2="effect1_dropShadow_2996_3351" result="shape"/>
</filter>
</defs>
</svg>
