<svg width="273" height="52" viewBox="0 0 273 52" fill="none" xmlns="http://www.w3.org/2000/svg">
<path d="M0.109375 10.8571H5.25223V16H0.109375V10.8571ZM0.109375 16H5.25223V21.1429H0.109375V16ZM0.109375 21.1429H5.25223V26.2857H0.109375V21.1429ZM0.109375 26.2857H5.25223V31.4286H0.109375V26.2857ZM0.109375 31.4286H5.25223V36.5714H0.109375V31.4286ZM0.109375 36.5714H5.25223V41.7143H0.109375V36.5714ZM5.25223 36.5714H10.3951V41.7143H5.25223V36.5714ZM5.25223 41.7143H10.3951V46.8571H5.25223V41.7143ZM10.3951 41.7143H15.5379V46.8571H10.3951V41.7143ZM10.3951 46.8571H15.5379V52H10.3951V46.8571ZM15.5379 41.7143H20.6808V46.8571H15.5379V41.7143ZM20.6808 36.5714H25.8237V41.7143H20.6808V36.5714ZM25.8237 21.1429H30.9665V26.2857H25.8237V21.1429ZM20.6808 10.8571H25.8237V16H20.6808V10.8571ZM25.8237 10.8571H30.9665V16H25.8237V10.8571ZM25.8237 16H30.9665V21.1429H25.8237V16ZM25.8237 26.2857H30.9665V31.4286H25.8237V26.2857ZM25.8237 31.4286H30.9665V36.5714H25.8237V31.4286ZM20.6808 31.4286H25.8237V36.5714H20.6808V31.4286ZM20.6808 26.2857H25.8237V31.4286H20.6808V26.2857ZM20.6808 21.1429H25.8237V26.2857H20.6808V21.1429ZM20.6808 16H25.8237V21.1429H20.6808V16ZM25.8237 36.5714H30.9665V41.7143H25.8237V36.5714ZM36.1094 41.7143H41.2522V46.8571H36.1094V41.7143ZM36.1094 46.8571H41.2522V52H36.1094V46.8571ZM41.2522 41.7143H46.3951V46.8571H41.2522V41.7143ZM41.2522 36.5714H46.3951V41.7143H41.2522V36.5714ZM46.3951 36.5714H51.5379V41.7143H46.3951V36.5714ZM46.3951 31.4286H51.5379V36.5714H46.3951V31.4286ZM46.3951 26.2857H51.5379V31.4286H46.3951V26.2857ZM46.3951 21.1429H51.5379V26.2857H46.3951V21.1429ZM46.3951 16H51.5379V21.1429H46.3951V16ZM46.3951 10.8571H51.5379V16H46.3951V10.8571ZM5.25223 16H10.3951V21.1429H5.25223V16ZM5.25223 21.1429H10.3951V26.2857H5.25223V21.1429ZM5.25223 26.2857H10.3951V31.4286H5.25223V26.2857ZM5.25223 31.4286H10.3951V36.5714H5.25223V31.4286ZM5.25223 10.8571H10.3951V16H5.25223V10.8571ZM41.2522 10.8571H46.3951V16H41.2522V10.8571ZM41.2522 16H46.3951V21.1429H41.2522V16ZM41.2522 21.1429H46.3951V26.2857H41.2522V21.1429ZM41.2522 26.2857H46.3951V31.4286H41.2522V26.2857ZM41.2522 31.4286H46.3951V36.5714H41.2522V31.4286ZM15.5379 46.8571H20.6808V52H15.5379V46.8571ZM20.6808 41.7143H25.8237V46.8571H20.6808V41.7143ZM25.8237 41.7143H30.9665V46.8571H25.8237V41.7143ZM30.9665 41.7143H36.1094V46.8571H30.9665V41.7143ZM30.9665 46.8571H36.1094V52H30.9665V46.8571ZM10.3951 36.5714H15.5379V41.7143H10.3951V36.5714ZM36.1094 36.5714H41.2522V41.7143H36.1094V36.5714ZM66.9263 10.8571H72.0692V16H66.9263V10.8571ZM61.7835 10.8571H66.9263V16H61.7835V10.8571ZM61.7835 16H66.9263V21.1429H61.7835V16ZM66.9263 16H72.0692V21.1429H66.9263V16ZM72.0692 10.8571H77.2121V16H72.0692V10.8571ZM77.2121 10.8571H82.3549V16H77.2121V10.8571ZM82.3549 10.8571H87.4978V16H82.3549V10.8571ZM82.3549 16H87.4978V21.1429H82.3549V16ZM77.2121 16H82.3549V21.1429H77.2121V16ZM82.3549 26.2857H87.4978V31.4286H82.3549V26.2857ZM87.4978 16H92.6406V21.1429H87.4978V16ZM87.4978 21.1429H92.6406V26.2857H87.4978V21.1429ZM87.4978 26.2857H92.6406V31.4286H87.4978V26.2857ZM87.4978 31.4286H92.6406V36.5714H87.4978V31.4286ZM87.4978 36.5714H92.6406V41.7143H87.4978V36.5714ZM87.4978 41.7143H92.6406V46.8571H87.4978V41.7143ZM82.3549 41.7143H87.4978V46.8571H82.3549V41.7143ZM82.3549 36.5714H87.4978V41.7143H82.3549V36.5714ZM82.3549 31.4286H87.4978V36.5714H82.3549V31.4286ZM82.3549 21.1429H87.4978V26.2857H82.3549V21.1429ZM77.2121 41.7143H82.3549V46.8571H77.2121V41.7143ZM82.3549 46.8571H87.4978V52H82.3549V46.8571ZM77.2121 46.8571H82.3549V52H77.2121V46.8571ZM72.0692 46.8571H77.2121V52H72.0692V46.8571ZM66.9263 46.8571H72.0692V52H66.9263V46.8571ZM61.7835 46.8571H66.9263V52H61.7835V46.8571ZM61.7835 41.7143H66.9263V46.8571H61.7835V41.7143ZM66.9263 41.7143H72.0692V46.8571H66.9263V41.7143ZM61.7835 36.5714H66.9263V41.7143H61.7835V36.5714ZM56.6406 41.7143H61.7835V46.8571H56.6406V41.7143ZM56.6406 36.5714H61.7835V41.7143H56.6406V36.5714ZM56.6406 31.4286H61.7835V36.5714H56.6406V31.4286ZM56.6406 26.2857H61.7835V31.4286H56.6406V26.2857ZM56.6406 21.1429H61.7835V26.2857H56.6406V21.1429ZM56.6406 16H61.7835V21.1429H56.6406V16ZM61.7835 21.1429H66.9263V26.2857H61.7835V21.1429ZM61.7835 26.2857H66.9263V31.4286H61.7835V26.2857ZM61.7835 31.4286H66.9263V36.5714H61.7835V31.4286ZM72.0692 41.7143H77.2121V46.8571H72.0692V41.7143ZM72.0692 16H77.2121V21.1429H72.0692V16ZM108.083 10.8571H113.225V16H108.083V10.8571ZM102.94 10.8571H108.083V16H102.94V10.8571ZM102.94 16H108.083V21.1429H102.94V16ZM108.083 16H113.225V21.1429H108.083V16ZM113.225 10.8571H118.368V16H113.225V10.8571ZM118.368 10.8571H123.511V16H118.368V10.8571ZM123.511 10.8571H128.654V16H123.511V10.8571ZM123.511 16H128.654V21.1429H123.511V16ZM118.368 16H123.511V21.1429H118.368V16ZM123.511 26.2857H128.654V31.4286H123.511V26.2857ZM128.654 16H133.797V21.1429H128.654V16ZM128.654 21.1429H133.797V26.2857H128.654V21.1429ZM128.654 26.2857H133.797V31.4286H128.654V26.2857ZM128.654 31.4286H133.797V36.5714H128.654V31.4286ZM128.654 36.5714H133.797V41.7143H128.654V36.5714ZM128.654 41.7143H133.797V46.8571H128.654V41.7143ZM123.511 41.7143H128.654V46.8571H123.511V41.7143ZM123.511 36.5714H128.654V41.7143H123.511V36.5714ZM123.511 31.4286H128.654V36.5714H123.511V31.4286ZM123.511 21.1429H128.654V26.2857H123.511V21.1429ZM118.368 41.7143H123.511V46.8571H118.368V41.7143ZM123.511 46.8571H128.654V52H123.511V46.8571ZM118.368 46.8571H123.511V52H118.368V46.8571ZM113.225 46.8571H118.368V52H113.225V46.8571ZM108.083 46.8571H113.225V52H108.083V46.8571ZM102.94 46.8571H108.083V52H102.94V46.8571ZM102.94 41.7143H108.083V46.8571H102.94V41.7143ZM108.083 41.7143H113.225V46.8571H108.083V41.7143ZM102.94 36.5714H108.083V41.7143H102.94V36.5714ZM97.7969 41.7143H102.94V46.8571H97.7969V41.7143ZM97.7969 36.5714H102.94V41.7143H97.7969V36.5714ZM97.7969 31.4286H102.94V36.5714H97.7969V31.4286ZM97.7969 26.2857H102.94V31.4286H97.7969V26.2857ZM97.7969 21.1429H102.94V26.2857H97.7969V21.1429ZM97.7969 16H102.94V21.1429H97.7969V16ZM102.94 21.1429H108.083V26.2857H102.94V21.1429ZM102.94 26.2857H108.083V31.4286H102.94V26.2857ZM102.94 31.4286H108.083V36.5714H102.94V31.4286ZM113.225 41.7143H118.368V46.8571H113.225V41.7143ZM113.225 16H118.368V21.1429H113.225V16ZM138.953 16H144.096V21.1429H138.953V16ZM144.096 16H149.239V21.1429H144.096V16ZM149.239 16H154.382V21.1429H149.239V16ZM154.382 16H159.525V21.1429H154.382V16ZM159.525 16H164.667V21.1429H159.525V16ZM164.667 16H169.81V21.1429H164.667V16ZM169.81 16H174.953V21.1429H169.81V16ZM169.81 10.8571H174.953V16H169.81V10.8571ZM164.667 10.8571H169.81V16H164.667V10.8571ZM159.525 10.8571H164.667V16H159.525V10.8571ZM154.382 10.8571H159.525V16H154.382V10.8571ZM149.239 10.8571H154.382V16H149.239V10.8571ZM144.096 10.8571H149.239V16H144.096V10.8571ZM138.953 10.8571H144.096V16H138.953V10.8571ZM169.81 21.1429H174.953V26.2857H169.81V21.1429ZM164.667 21.1429H169.81V26.2857H164.667V21.1429ZM159.525 21.1429H164.667V26.2857H159.525V21.1429ZM159.525 26.2857H164.667V31.4286H159.525V26.2857ZM164.667 26.2857H169.81V31.4286H164.667V26.2857ZM154.382 26.2857H159.525V31.4286H154.382V26.2857ZM159.525 31.4286H164.667V36.5714H159.525V31.4286ZM154.382 31.4286H159.525V36.5714H154.382V31.4286ZM149.239 31.4286H154.382V36.5714H149.239V31.4286ZM149.239 36.5714H154.382V41.7143H149.239V36.5714ZM144.096 36.5714H149.239V41.7143H144.096V36.5714ZM154.382 36.5714H159.525V41.7143H154.382V36.5714ZM138.953 41.7143H144.096V46.8571H138.953V41.7143ZM144.096 41.7143H149.239V46.8571H144.096V41.7143ZM149.239 41.7143H154.382V46.8571H149.239V41.7143ZM154.382 41.7143H159.525V46.8571H154.382V41.7143ZM159.525 41.7143H164.667V46.8571H159.525V41.7143ZM164.667 41.7143H169.81V46.8571H164.667V41.7143ZM164.667 46.8571H169.81V52H164.667V46.8571ZM169.81 46.8571H174.953V52H169.81V46.8571ZM169.81 41.7143H174.953V46.8571H169.81V41.7143ZM159.525 46.8571H164.667V52H159.525V46.8571ZM154.382 46.8571H159.525V52H154.382V46.8571ZM149.239 46.8571H154.382V52H149.239V46.8571ZM144.096 46.8571H149.239V52H144.096V46.8571ZM138.953 46.8571H144.096V52H138.953V46.8571ZM180.109 0.57143H190.395V10.8571H180.109V0.57143ZM180.109 16H190.395V52H180.109V16ZM205.864 10.8571H211.007V16H205.864V10.8571ZM200.721 10.8571H205.864V16H200.721V10.8571ZM200.721 16H205.864V21.1429H200.721V16ZM205.864 16H211.007V21.1429H205.864V16ZM211.007 10.8571H216.15V16H211.007V10.8571ZM216.15 10.8571H221.292V16H216.15V10.8571ZM221.292 10.8571H226.435V16H221.292V10.8571ZM221.292 16H226.435V21.1429H221.292V16ZM216.15 16H221.292V21.1429H216.15V16ZM226.435 16H231.578V21.1429H226.435V16ZM226.435 21.1429H231.578V26.2857H226.435V21.1429ZM226.435 41.7143H231.578V46.8571H226.435V41.7143ZM221.292 41.7143H226.435V46.8571H221.292V41.7143ZM221.292 21.1429H226.435V26.2857H221.292V21.1429ZM216.15 41.7143H221.292V46.8571H216.15V41.7143ZM221.292 46.8571H226.435V52H221.292V46.8571ZM216.15 46.8571H221.292V52H216.15V46.8571ZM211.007 46.8571H216.15V52H211.007V46.8571ZM205.864 46.8571H211.007V52H205.864V46.8571ZM200.721 46.8571H205.864V52H200.721V46.8571ZM200.721 41.7143H205.864V46.8571H200.721V41.7143ZM205.864 41.7143H211.007V46.8571H205.864V41.7143ZM200.721 36.5714H205.864V41.7143H200.721V36.5714ZM195.578 41.7143H200.721V46.8571H195.578V41.7143ZM195.578 36.5714H200.721V41.7143H195.578V36.5714ZM195.578 31.4286H200.721V36.5714H195.578V31.4286ZM195.578 26.2857H200.721V31.4286H195.578V26.2857ZM195.578 21.1429H200.721V26.2857H195.578V21.1429ZM195.578 16H200.721V21.1429H195.578V16ZM200.721 21.1429H205.864V26.2857H200.721V21.1429ZM200.721 26.2857H205.864V31.4286H200.721V26.2857ZM200.721 31.4286H205.864V36.5714H200.721V31.4286ZM211.007 41.7143H216.15V46.8571H211.007V41.7143ZM211.007 16H216.15V21.1429H211.007V16ZM221.292 26.2857H226.435V31.4286H221.292V26.2857ZM226.435 26.2857H231.578V31.4286H226.435V26.2857ZM205.864 31.4286H211.007V36.5714H205.864V31.4286ZM211.007 31.4286H216.15V36.5714H211.007V31.4286ZM216.15 31.4286H221.292V36.5714H216.15V31.4286ZM221.292 31.4286H226.435V36.5714H221.292V31.4286ZM226.435 31.4286H231.578V36.5714H226.435V31.4286ZM216.15 26.2857H221.292V31.4286H216.15V26.2857ZM211.007 26.2857H216.15V31.4286H211.007V26.2857ZM205.864 26.2857H211.007V31.4286H205.864V26.2857ZM247.02 10.8571H252.163V16H247.02V10.8571ZM241.877 10.8571H247.02V16H241.877V10.8571ZM241.877 16H247.02V21.1429H241.877V16ZM247.02 16H252.163V21.1429H247.02V16ZM252.163 10.8571H257.306V16H252.163V10.8571ZM257.306 10.8571H262.449V16H257.306V10.8571ZM262.449 10.8571H267.592V16H262.449V10.8571ZM262.449 16H267.592V21.1429H262.449V16ZM257.306 16H262.449V21.1429H257.306V16ZM267.592 16H272.734V21.1429H267.592V16ZM267.592 21.1429H272.734V26.2857H267.592V21.1429ZM267.592 41.7143H272.734V46.8571H267.592V41.7143ZM262.449 41.7143H267.592V46.8571H262.449V41.7143ZM262.449 21.1429H267.592V26.2857H262.449V21.1429ZM257.306 41.7143H262.449V46.8571H257.306V41.7143ZM262.449 46.8571H267.592V52H262.449V46.8571ZM257.306 46.8571H262.449V52H257.306V46.8571ZM252.163 46.8571H257.306V52H252.163V46.8571ZM247.02 46.8571H252.163V52H247.02V46.8571ZM241.877 46.8571H247.02V52H241.877V46.8571ZM241.877 41.7143H247.02V46.8571H241.877V41.7143ZM247.02 41.7143H252.163V46.8571H247.02V41.7143ZM241.877 36.5714H247.02V41.7143H241.877V36.5714ZM236.734 41.7143H241.877V46.8571H236.734V41.7143ZM236.734 36.5714H241.877V41.7143H236.734V36.5714ZM236.734 31.4286H241.877V36.5714H236.734V31.4286ZM236.734 26.2857H241.877V31.4286H236.734V26.2857ZM236.734 21.1429H241.877V26.2857H236.734V21.1429ZM236.734 16H241.877V21.1429H236.734V16ZM241.877 21.1429H247.02V26.2857H241.877V21.1429ZM241.877 26.2857H247.02V31.4286H241.877V26.2857ZM241.877 31.4286H247.02V36.5714H241.877V31.4286ZM252.163 41.7143H257.306V46.8571H252.163V41.7143ZM252.163 16H257.306V21.1429H252.163V16ZM262.449 26.2857H267.592V31.4286H262.449V26.2857ZM267.592 26.2857H272.734V31.4286H267.592V26.2857ZM247.02 31.4286H252.163V36.5714H247.02V31.4286ZM252.163 31.4286H257.306V36.5714H252.163V31.4286ZM257.306 31.4286H262.449V36.5714H257.306V31.4286ZM262.449 31.4286H267.592V36.5714H262.449V31.4286ZM267.592 31.4286H272.734V36.5714H267.592V31.4286ZM257.306 26.2857H262.449V31.4286H257.306V26.2857ZM252.163 26.2857H257.306V31.4286H252.163V26.2857ZM247.02 26.2857H252.163V31.4286H247.02V26.2857Z" fill="black"/>
</svg>
